/* XPM */
static char * black_background_47_xpm[] = {
"64 64 2 1",
" 	c #000000",
".	c #FFFFFF",
"        ................                ................        ",
"        ................                ................        ",
"        ................                ................        ",
"        ................                ................        ",
"      ....................            ....................      ",
"      ....................            ....................      ",
"    ........................        ........................    ",
"    ........................        ........................    ",
"............        ........................        ............",
"............        ........................        ............",
"..........            ....................            ..........",
"..........            ....................            ..........",
"........                ................                ........",
"........                ................                ........",
"........                ................                ........",
"........                ................                ........",
"........                ................                ........",
"........                ................                ........",
"........                ................                ........",
"........                ................                ........",
"..........            ....................            ..........",
"..........            ....................            ..........",
"............        ........................        ............",
"............        ........................        ............",
"    ........................        ........................    ",
"    ........................        ........................    ",
"      ....................            ....................      ",
"      ....................            ....................      ",
"        ................                ................        ",
"        ................                ................        ",
"        ................                ................        ",
"        ................                ................        ",
"        ................                ................        ",
"        ................                ................        ",
"        ................                ................        ",
"        ................                ................        ",
"      ....................            ....................      ",
"      ....................            ....................      ",
"    ........................        ........................    ",
"    ........................        ........................    ",
"............        ........................        ............",
"............        ........................        ............",
"..........            ....................            ..........",
"..........            ....................            ..........",
"........                ................                ........",
"........                ................                ........",
"........                ................                ........",
"........                ................                ........",
"........                ................                ........",
"........                ................                ........",
"........                ................                ........",
"........                ................                ........",
"..........            ....................            ..........",
"..........            ....................            ..........",
"............        ........................        ............",
"............        ........................        ............",
"    ........................        ........................    ",
"    ........................        ........................    ",
"      ....................            ....................      ",
"      ....................            ....................      ",
"        ................                ................        ",
"        ................                ................        ",
"        ................                ................        ",
"        ................                ................        "};
