/* XPM */
static char * black_background_63_xpm[] = {
"64 64 2 1",
" 	c #000000",
".	c #FFFFFF",
"                                  ..........................    ",
"                                  ..........................    ",
"                                ..............................  ",
"                                ..............................  ",
"    ....              ....      ....    ..............    ....  ",
"    ....              ....      ....    ..............    ....  ",
"    ....              ....      ....    ..............    ....  ",
"    ....              ....      ....    ..............    ....  ",
"                                ..............................  ",
"                                ..............................  ",
"                                ..............................  ",
"                                ..............................  ",
"                                ..............................  ",
"                                ..............................  ",
"                                ..............................  ",
"                                ..............................  ",
"                                ..............................  ",
"                                ..............................  ",
"                                ..............................  ",
"                                ..............................  ",
"                                ..............................  ",
"                                ..............................  ",
"    ....              ....      ....    ..............    ....  ",
"    ....              ....      ....    ..............    ....  ",
"    ....              ....      ....    ..............    ....  ",
"    ....              ....      ....    ..............    ....  ",
"                                ..............................  ",
"                                ..............................  ",
"                                  ..........................    ",
"                                  ..........................    ",
"                                                                ",
"                                                                ",
"  ..........................                                    ",
"  ..........................                                    ",
"..............................                                  ",
"..............................                                  ",
"....    ..............    ....      ....              ....      ",
"....    ..............    ....      ....              ....      ",
"....    ..............    ....      ....              ....      ",
"....    ..............    ....      ....              ....      ",
"..............................                                  ",
"..............................                                  ",
"..............................                                  ",
"..............................                                  ",
"..............................                                  ",
"..............................                                  ",
"..............................                                  ",
"..............................                                  ",
"..............................                                  ",
"..............................                                  ",
"..............................                                  ",
"..............................                                  ",
"..............................                                  ",
"..............................                                  ",
"....    ..............    ....      ....              ....      ",
"....    ..............    ....      ....              ....      ",
"....    ..............    ....      ....              ....      ",
"....    ..............    ....      ....              ....      ",
"..............................                                  ",
"..............................                                  ",
"  ..........................                                    ",
"  ..........................                                    ",
"                                                                ",
"                                                                "};
