/* XPM */
static char * color_background_89_00_xpm[] = {
"64 64 47 1",
" 	c #FFFFFF",
".	c #FEFEFE",
"+	c #FAFBFA",
"@	c #FBFBFB",
"#	c #CED0CE",
"$	c #EAEBEA",
"%	c #EEEFEF",
"&	c #FCFCFC",
"*	c #FAFAFA",
"=	c #FDFDFD",
"-	c #EBECEB",
";	c #EDEEEE",
">	c #CFD1CF",
",	c #F8F9F8",
"'	c #F2F2F2",
")	c #F5F5F5",
"!	c #F1F1F1",
"~	c #E0E2E0",
"{	c #F4F4F4",
"]	c #F3F3F3",
"^	c #E2E4E3",
"/	c #D0D2D1",
"(	c #FBFCFC",
"_	c #E5E6E5",
":	c #F7F8F8",
"<	c #FDFEFD",
"[	c #DDDEDD",
"}	c #E1E3E2",
"|	c #ECEDED",
"1	c #F0F0F0",
"2	c #E8E9E8",
"3	c #F6F6F6",
"4	c #E9EAE9",
"5	c #E6E7E6",
"6	c #DEDFDE",
"7	c #E7E8E7",
"8	c #E4E5E4",
"9	c #D1D3D2",
"0	c #D2D4D3",
"a	c #F7F7F7",
"b	c #DCDDDC",
"c	c #DADCDB",
"d	c #D9DBDA",
"e	c #DFE0DF",
"f	c #F9FAF9",
"g	c #D7D9D7",
"h	c #D8DAD8",
"         .+@#$     % &*=                  @*#-     ; &@=        ",
"      .@**##>,     '># @**.           =**@###)     !># @**.     ",
"   .@**###>~{=     .]^/## +*(=     =***####_:<     .)[### +*+.  ",
"   *###>}|!@  =12|=  <345### *=   .*####6^;=  @%|%.  <{47>## *  ",
"  *##84)<     )  9)     .1-^> (   @##6-'&     ]  03     .a$^>.& ",
"  *#^=       @2 &#8@        8 *   *#_&       =~ &#-=       @b * ",
" .*#;        $  * #'        $ @  =@#4        |  *.>!        4 *=",
" @#>1        7 +&*#$        {# ( *##%        } @=+#-        '# *",
" *#~=       &~ * *#[@       =c * *#6=       <d * *#5=       *8 *",
".*#2        ;  @ * #]        - *=*#2        ]  + + #1        | @",
"*##)        % *. .@#5        -# *##3        7 *= =*#;        )# ",
"+#~        =^ *   *#~        &^ (#5=       @~ *   *#[@       *5 ",
"##]     .'76  @   + #}-]=     ,/#>a     =);$  *   * >64%*     1#",
"-1@  <'-e    *.   =*   #7;).  @{8]<  .'$^    *=   =*   >2|3<  .;",
"   @:b    +*@=     .@*@   >8a=     =-}   .**@=     =@**   >^)*  ",
"   '  .**@.           =+*@  #{     3   +**             @**  >1  ",
"   ; .*&                 @*&#-     4 &*&                 &*&#2  ",
"   {/# @**=           &(**##>]     !># **@=            @**##>!  ",
"   f|8>## @**=     =@**####[{&     <{}### ***.     =**@####e3<  ",
"-]=  @3%_>##.*=   .*####c!]<  @{1-&  &)$}### *=   =*####^-:&  &@",
" 93     =!55#.*   @##51:.     ]  9'      ]^_# @   @#>$%3=     ; ",
"(#},       .c *   *#c&       =e &#8.       *8 *   *#}<       =^ ",
"@ 93        2 *. .*#1        )  * >)        - *= =@#7        ]  ",
"=*#_        5# * (#>,        4 *=@#2        4# + @##,        $ @",
" *#5=       <2 * *#_*       &5 * *#e&       :c * +#^=       =~ *",
" * >'        _ +&*#5        '  + * #'        2 @(+#-        3  *",
" =*#7        {/.*#>)        $ @= .*#2        {#=*#>-        5 *.",
"  *#}&       &~ &#5@       <7 *   *#}<       .2 =#5<       @2 * ",
"  ( #52a=     )##/'     <!2}  *   (.>74!.     3###3     &!1_  * ",
"  =*   /[%'&  =3]):  @'-[   .*.   .*.  #^5]   &12%&  .,$2   .*. ",
"   .**@.  9}].     <{8   .@**.     =**@   >~%=     @{^   .+**=  ",
"      &@*+  >{     !  .**(=           .+**  #{     ]   @*@=     ",
"         &*.#2     ! &*&                 &*=#2     4 &*=        ",
"       @**###)     :## *@+.           .**&###!     {># ***=     ",
"   =**+####^)@     =1~### **@.      **@####5!&     f1_### **@=  ",
"  .*###>e-'   <;'3@  =a7_>## *=   .*####^]3*  .!|3*  &3;}### *= ",
"  @##[^'@     ]  #3     <{7^# *   +##e21f     '  >3     <'!6> @ ",
"  *#[=       .7 =#6f       .[ *   *#^&       =7 =#e.       @b * ",
" .*#5        1  * #]        7 @  =*#-        ]  * #'        5 @=",
" @#>,        2 *&+#^        ]> @ +##)        1 *=*#7        1/ *",
" *#e<       =~ * *#~=       *} * *#_@       <~ * *#^=       a~ *",
".(#7        %  ( * #{        7 *&*#^        %  @ * #)        % *",
"@#>a        | *=  *#2        {> *#>3        7 @.  *#|        ]> ",
"@#2<       <g *   *#6*       =e &#4<       .} *   *#~<       @b ",
"#>]     @3$8  *   & >h;3*     ]0#/]     &%5}  *   @.#d%{f     3/",
";:&  .!54   =*     *   0e-'<  &34)<  .)2^   .*.   .*.  #b-1&   3",
"    ]$   .+**       +*+.  >81*     <!8    **@=     =@**   #5%f  ",
"   3   +*@            .+*@  >1     a   @**.           .@**  #)  ",
"   2 =*&                 =*@#4     _ .*&                  *=#5  ",
"   !># +*&.           .***###]     7## ***            &***###)  ",
"   *;^### **@.     .**+####~!=     .{$### @*+.     =+**####c)<  ",
"7)*  &'-8### *&   .*####85)&  <a;{&  @a^8### *.   =*####b$]=  .:",
" #]     ,]4^# *   *##c2!=     ]  #|     &]56# @   @##}|!<     ! ",
"@#^.       @[ *   *#~&       &8 =#2<       &~ *   *#}=       =~ ",
"* >3        - @= =@#$        ]  * >)        7 @= =*#7        7  ",
"=@#4        4# * @##'        7 +=*#7        '# @ @##'        7 *",
" *#e&       =$ * *#d.       f5 * *#6<       &8 * *#8&        5 *",
" ( #!        7 *=*#_        1  * + #'        ^ *=*#|        a  @",
" .*#4        '# *##!        8 *= .@#%        1# *##;        - *=",
"  *#}&        6 (#^=       &e +   *#8@       @} &#b=       &^ + ",
"  * #[7;&     ]>#9'     <);_  &   @ #}4{=     :/#>]     &*;e .@ ",
"  =*   #^$3=  *];%=  .{-[    *.   =@   #^|)=  <'2;<  @32e    *= ",
"   .**+   #5)=     @!6    +*+=     =**@   >41<     =,6   .@*+=  ",
"      =**@  /)     1   @**.           .@*@  /)     :   ***=     "};
