/* XPM */
static char * color_background_88_xpm[] = {
"64 64 2 1",
" 	c #D2CFDE",
".	c #A7A9B3",
"              ..................................                ",
"              ..................................                ",
"          ............................................          ",
"          ............................................          ",
"      ....................................................      ",
"      ....................................................      ",
"    ........................................................    ",
"    ........................................................    ",
"    ........................................................    ",
"    ........................................................    ",
"  ............................................................  ",
"  ............................................................  ",
"  ............................................................  ",
"  ............................................................  ",
"  ..............................................................",
"  ..............................................................",
"..............................  ................................",
"..............................  ................................",
"..............................    ..............................",
"..............................    ..............................",
"..............................    ..............................",
"..............................    ..............................",
"............................        ............................",
"............................        ............................",
"............................        ............................",
"............................        ............................",
"..........................            ..........................",
"..........................            ..........................",
"......................                    ......................",
"......................                    ......................",
"..................                              ................",
"..................                              ................",
"................                              ..................",
"................                              ..................",
"......................                    ......................",
"......................                    ......................",
"..........................            ..........................",
"..........................            ..........................",
"............................        ............................",
"............................        ............................",
"............................        ............................",
"............................        ............................",
"..............................    ..............................",
"..............................    ..............................",
"..............................    ..............................",
"..............................    ..............................",
"................................  ..............................",
"................................  ..............................",
"..............................................................  ",
"..............................................................  ",
"  ............................................................  ",
"  ............................................................  ",
"  ............................................................  ",
"  ............................................................  ",
"    ........................................................    ",
"    ........................................................    ",
"    ........................................................    ",
"    ........................................................    ",
"      ....................................................      ",
"      ....................................................      ",
"          ............................................          ",
"          ............................................          ",
"                ..................................              ",
"                ..................................              "};
