/* XPM */
static char * color_background_44_xpm[] = {
"64 64 2 1",
" 	c #80D59F",
".	c #8FE19D",
"                                                                ",
"                                                                ",
"            ........                        ........            ",
"            ........                        ........            ",
"        ................                ................        ",
"        ................                ................        ",
"      ....................            ....................      ",
"      ....................            ....................      ",
"    ........................        ........................    ",
"    ........................        ........................    ",
"    ........................        ........................    ",
"    ........................        ........................    ",
"  ............................    ............................  ",
"  ............................    ............................  ",
"  ............................    ............................  ",
"  ............................    ............................  ",
"  ............................    ............................  ",
"  ............................    ............................  ",
"  ............................    ............................  ",
"  ............................    ............................  ",
"    ........................        ........................    ",
"    ........................        ........................    ",
"    ........................        ........................    ",
"    ........................        ........................    ",
"      ....................            ....................      ",
"      ....................            ....................      ",
"        ................                ................        ",
"        ................                ................        ",
"            ........                        ........            ",
"            ........                        ........            ",
"                                                                ",
"                                                                ",
"                                                                ",
"                                                                ",
"            ........                        ........            ",
"            ........                        ........            ",
"        ................                ................        ",
"        ................                ................        ",
"      ....................            ....................      ",
"      ....................            ....................      ",
"    ........................        ........................    ",
"    ........................        ........................    ",
"    ........................        ........................    ",
"    ........................        ........................    ",
"  ............................    ............................  ",
"  ............................    ............................  ",
"  ............................    ............................  ",
"  ............................    ............................  ",
"  ............................    ............................  ",
"  ............................    ............................  ",
"  ............................    ............................  ",
"  ............................    ............................  ",
"    ........................        ........................    ",
"    ........................        ........................    ",
"    ........................        ........................    ",
"    ........................        ........................    ",
"      ....................            ....................      ",
"      ....................            ....................      ",
"        ................                ................        ",
"        ................                ................        ",
"            ........                        ........            ",
"            ........                        ........            ",
"                                                                ",
"                                                                "};
