/* XPM */
static char * color_background_89_2_xpm[] = {
"64 64 4 1",
" 	c #DED7CF",
".	c #B3AFA7",
"+	c #FFF9F1",
"@	c #7E7B73",
"                         ..............                         ",
"                        ................                        ",
"                      ....................                      ",
"                    ........................                    ",
"                ................................                ",
"              ....................................              ",
"          ............................................          ",
"        .......................+ .......................        ",
"       ........................ +........................       ",
"       ....................... + +.......................       ",
"      ........................+ + ........................      ",
"      ........................ + +........................      ",
"      ....................... + + +.......................      ",
"      ...................... + + + +......................      ",
"     .......................+ + + + .......................     ",
"     ....................... + + + +.......................     ",
"    ........................+ + + + ........................    ",
"    ........................ + + + +........................    ",
"    ....................... + + + + +.......................    ",
"    .......................+ + + + + .......................    ",
"   ........................ + + + + +........................   ",
"   ........................+ + + + + ........................   ",
"  ........................+ + + + + + ........................  ",
"  ........................ + + + + + +........................  ",
" ........................              ........................ ",
"........................                ........................",
"......................+                   ......................",
".................. + +                        ..................",
"............. + + + + +                            .............",
"............ + + + + +                              ............",
"......... + + + + + + +                                .........",
".......+ + + + + + + +                                   .......",
".....@@ + + + + + + + +                                  @@.....",
".......@@+ + + + + + +                                 @@.......",
".........@@@+ + + + + +                             @@@.........",
"............@+ + + + +                             @............",
".............@@@@@+ + +                       @@@@@.............",
"..................@@@@                    @@@@..................",
"......................@@                @@......................",
"@.......................@              @.......................@",
" @.......................@            @.......................@ ",
"  ........................            ........................  ",
"  @.......................@          @.......................@  ",
"   ........................          ........................   ",
"   @.......................          .......................@   ",
"    .......................          .......................    ",
"    .......................@        @.......................    ",
"    ........................        ........................    ",
"    @.......................        .......................@    ",
"     .......................        .......................     ",
"     @......................        ......................@     ",
"      ......................@      @......................      ",
"      .......................@    @.......................      ",
"      ........................    ........................      ",
"      @.......................    .......................@      ",
"       .......................@  @.......................       ",
"       @.......................  .......................@       ",
"        @@.....................@@.....................@@        ",
"          @@@@....................................@@@@          ",
"              @@................................@@              ",
"                @@@@........................@@@@                ",
"                    @@....................@@                    ",
"                      @@................@@                      ",
"                        @..............@                        "};
