/* XPM */
static char * barrel2_xpm[] = {
"32 32 216 2",
"  	c #000000",
". 	c #0A0A0A",
"+ 	c #323232",
"@ 	c #454545",
"# 	c #4B4B4B",
"$ 	c #4C4C4C",
"% 	c #4D4D4D",
"& 	c #565656",
"* 	c #555555",
"= 	c #1A1A1A",
"- 	c #010101",
"; 	c #5F5F5F",
"> 	c #505050",
", 	c #3F3F3F",
"' 	c #3E3E3E",
") 	c #404040",
"! 	c #494949",
"~ 	c #525252",
"{ 	c #575757",
"] 	c #616161",
"^ 	c #313131",
"/ 	c #472C1B",
"( 	c #746660",
"_ 	c #787676",
": 	c #777675",
"< 	c #6C6A69",
"[ 	c #656463",
"} 	c #615F5F",
"| 	c #5B5A59",
"1 	c #555454",
"2 	c #4E4D4C",
"3 	c #4B4A4A",
"4 	c #3F3F3E",
"5 	c #383736",
"6 	c #332B1F",
"7 	c #030201",
"8 	c #100602",
"9 	c #6D4526",
"0 	c #885634",
"a 	c #935E3B",
"b 	c #885837",
"c 	c #885736",
"d 	c #774D2F",
"e 	c #7D5031",
"f 	c #764C2D",
"g 	c #664426",
"h 	c #5C3E22",
"i 	c #553B1F",
"j 	c #4D371C",
"k 	c #49351A",
"l 	c #473418",
"m 	c #201707",
"n 	c #180E08",
"o 	c #7E5131",
"p 	c #8C5A38",
"q 	c #98603A",
"r 	c #9D633C",
"s 	c #9C613B",
"t 	c #80512E",
"u 	c #925A37",
"v 	c #8A5532",
"w 	c #754A29",
"x 	c #654122",
"y 	c #6D4525",
"z 	c #593C1E",
"A 	c #5E3F22",
"B 	c #48361D",
"C 	c #2C261E",
"D 	c #343433",
"E 	c #666463",
"F 	c #73706E",
"G 	c #8B7064",
"H 	c #8B6C5C",
"I 	c #846557",
"J 	c #795E51",
"K 	c #7B5D4F",
"L 	c #73594C",
"M 	c #665044",
"N 	c #5D4C42",
"O 	c #614B3E",
"P 	c #514238",
"Q 	c #403E3D",
"R 	c #393837",
"S 	c #2E2A24",
"T 	c #47362B",
"U 	c #655B56",
"V 	c #686564",
"W 	c #706E6E",
"X 	c #656362",
"Y 	c #636160",
"Z 	c #585757",
"` 	c #585656",
" .	c #4C4A4A",
"..	c #4B4948",
"+.	c #494848",
"@.	c #40403F",
"#.	c #373635",
"$.	c #333130",
"%.	c #3F3220",
"&.	c #070401",
"*.	c #57371D",
"=.	c #815230",
"-.	c #98613C",
";.	c #895837",
">.	c #905C39",
",.	c #895735",
"'.	c #744B2D",
").	c #794D2F",
"!.	c #724A2A",
"~.	c #684426",
"{.	c #543920",
"].	c #5B3D21",
"^.	c #523A1E",
"/.	c #4C361C",
"(.	c #48351A",
"_.	c #463318",
":.	c #835330",
"<.	c #9F653C",
"[.	c #9A613A",
"}.	c #A0653D",
"|.	c #9C613A",
"1.	c #895633",
"2.	c #8A5633",
"3.	c #83522F",
"4.	c #734928",
"5.	c #634022",
"6.	c #704626",
"7.	c #614021",
"8.	c #4E371A",
"9.	c #493519",
"0.	c #875532",
"a.	c #534239",
"b.	c #825537",
"c.	c #9E6540",
"d.	c #99613A",
"e.	c #865431",
"f.	c #42382E",
"g.	c #070504",
"h.	c #444343",
"i.	c #727170",
"j.	c #777371",
"k.	c #896858",
"l.	c #866657",
"m.	c #775D51",
"n.	c #785C4E",
"o.	c #564438",
"p.	c #443F3A",
"q.	c #393838",
"r.	c #2F2F2E",
"s.	c #020202",
"t.	c #272625",
"u.	c #5C534E",
"v.	c #646261",
"w.	c #6A6867",
"x.	c #636261",
"y.	c #626160",
"z.	c #575655",
"A.	c #4A4948",
"B.	c #41403F",
"C.	c #403F3E",
"D.	c #3B3734",
"E.	c #362E26",
"F.	c #3F3020",
"G.	c #080401",
"H.	c #150A03",
"I.	c #774D2C",
"J.	c #7C4F30",
"K.	c #845433",
"L.	c #865635",
"M.	c #784D2F",
"N.	c #664327",
"O.	c #6D482A",
"P.	c #6A4628",
"Q.	c #624225",
"R.	c #5E3F23",
"S.	c #4B361C",
"T.	c #4A351B",
"U.	c #483419",
"V.	c #3C2C13",
"W.	c #060301",
"X.	c #010000",
"Y.	c #534035",
"Z.	c #865739",
"`.	c #8B5936",
" +	c #8D5835",
".+	c #8C5734",
"++	c #6F4727",
"@+	c #7D502D",
"#+	c #7C4F2C",
"$+	c #674323",
"%+	c #624021",
"&+	c #6A4424",
"*+	c #4B361A",
"=+	c #473419",
"-+	c #1F1707",
";+	c #353434",
">+	c #747271",
",+	c #7B6E68",
"'+	c #7D675D",
")+	c #7D6459",
"!+	c #6B5A51",
"~+	c #6D584C",
"{+	c #685244",
"]+	c #5A483E",
"^+	c #594539",
"/+	c #534032",
"(+	c #41362B",
"_+	c #372E22",
":+	c #2A241C",
"<+	c #383838",
"[+	c #535353",
"}+	c #5B5B5B",
"|+	c #4E4E4E",
"1+	c #424242",
"2+	c #373737",
"3+	c #2C2C2C",
"                                                                ",
"                                                                ",
"                                                                ",
"                                                                ",
"                                                                ",
"                                                                ",
"                                                                ",
"                                                                ",
"                                                                ",
"                                                                ",
"                                                                ",
"                                                                ",
"                                                                ",
"                                                                ",
"                                                                ",
"                    . + @ @ @ @ # $ % & * = -                   ",
"                  . ; > , ' ) ) ) ! $ ~ { ] ^                   ",
"                  / ( _ : < [ } | 1 2 3 4 5 6 7                 ",
"                8 9 0 a b c d e f g h i j k l m                 ",
"                n o p q r s t u v w x y z A B C                 ",
"                D E F G H I J K L M N O P Q R S 7               ",
"                T U V W X Y Z `  ...+.@.4 #.$.%.&.              ",
"                *.=.-.;.>.,.'.).!.~.{.].^./.(._.&.              ",
"                *.:.<.[.}.|.1.2.3.4.5.6.7.8.9._.&.              ",
"                *.:.<.[.}.|.0.2.3.4.5.6.7.8.9._.&.              ",
"                a.b.c.d.}.|.e.2.3.4.5.6.7.j B f.g.              ",
"                h.i.j.G k.l.m.n.L M N O o.p.q.r.s.              ",
"                t.u.v.w.x.y.Z z.3 A.+.B.C.D.E.F.G.              ",
"                H.I.J.K.L.M.N.O.P.Q.{.R.S.T.U.V.W.              ",
"                X.Y.Z.`. +.+++@+#+$+%+&+8.*+=+-+                ",
"                  ;+>+,+'+)+!+~+{+]+^+/+(+_+:+s.                ",
"                  - <+[+}+{ |+$ 1+, 2+^ 3+= s.                  "};
