/* XPM */
static char * coin_mario2_xpm[] = {
"16 16 108 2",
"  	c None",
". 	c #C8A746",
"+ 	c #CEA11C",
"@ 	c #D59827",
"# 	c #DCA323",
"$ 	c #DDA52B",
"% 	c #B58315",
"& 	c #EAAA05",
"* 	c #E3A514",
"= 	c #DEA105",
"- 	c #DC9B05",
"; 	c #E19504",
"> 	c #D98C03",
", 	c #D38D12",
"' 	c #F6D767",
") 	c #E8D788",
"! 	c #D4AC23",
"~ 	c #EAAB13",
"{ 	c #F5DD96",
"] 	c #D4A43D",
"^ 	c #D5A20D",
"/ 	c #DCA214",
"( 	c #D38D04",
"_ 	c #F8E6A9",
": 	c #F1EBD0",
"< 	c #C79A32",
"[ 	c #ECA62A",
"} 	c #E8C759",
"| 	c #E29D05",
"1 	c #D59B06",
"2 	c #EBB52A",
"3 	c #DA9404",
"4 	c #D49205",
"5 	c #C27D04",
"6 	c #CA8504",
"7 	c #F0AA18",
"8 	c #DCAC24",
"9 	c #E9A40B",
"0 	c #CC8B0A",
"a 	c #EDBC33",
"b 	c #CD9D1A",
"c 	c #D1830B",
"d 	c #AE8117",
"e 	c #FBE379",
"f 	c #C29024",
"g 	c #E3A51B",
"h 	c #E9A405",
"i 	c #F1BC32",
"j 	c #FAE28C",
"k 	c #CC980A",
"l 	c #D18604",
"m 	c #D38C0A",
"n 	c #D8A942",
"o 	c #EAAD2A",
"p 	c #E4AB14",
"q 	c #C58504",
"r 	c #E29E0B",
"s 	c #ECBA2B",
"t 	c #F1B01A",
"u 	c #F5D347",
"v 	c #FBCC44",
"w 	c #F9CA3C",
"x 	c #AB7616",
"y 	c #B4770B",
"z 	c #E4AB1B",
"A 	c #E4AC22",
"B 	c #CC8B04",
"C 	c #DB9B0C",
"D 	c #E4A305",
"E 	c #A46C15",
"F 	c #C38B13",
"G 	c #DDAB0B",
"H 	c #E9AE1C",
"I 	c #E9B11D",
"J 	c #CB8509",
"K 	c #E4A30B",
"L 	c #E9AE22",
"M 	c #7C4B0B",
"N 	c #87530A",
"O 	c #D3AA34",
"P 	c #EAB323",
"Q 	c #C58A0B",
"R 	c #F5CE52",
"S 	c #834B09",
"T 	c #6E4813",
"U 	c #E3A623",
"V 	c #D59A0C",
"W 	c #794305",
"X 	c #D8B41A",
"Y 	c #DCAC2B",
"Z 	c #DCA41B",
"` 	c #D49413",
" .	c #864A08",
"..	c #844C06",
"+.	c #CEB123",
"@.	c #DCB947",
"#.	c #E5B11C",
"$.	c #DA9D1A",
"%.	c #B77C18",
"&.	c #E5BB48",
"*.	c #EBB923",
"=.	c #F1BC2C",
"-.	c #E2A73C",
";.	c #E4B92C",
">.	c #E5B52B",
",.	c #E6B323",
"'.	c #F3C543",
").	c #E6C349",
"          . + @ # $             ",
"      % & * = - ; > , ' )       ",
"    ! ~ * { ] ^ / ( ( ( _ :     ",
"  < [ } | 1 | 2 3 4 5 6 > _     ",
"  7 8 - 9 | 0 a b 4 4 6 c d e   ",
"f ~ g h 9 9 4 i j k 4 l m m n   ",
"o p p q r r s t u v w * l > x y ",
"* p z A B m s C ~ D 7 ( l > E F ",
"G A H I * J 1 D K L 4 > ( ( M N ",
"O g 8 I P Q 4 D h R 4 > 4 4 S T ",
"  z R H U 4 r V K w 4 4 V @ W   ",
"  z X Y Z V A H g p 1 * `  ...  ",
"    o +.@.P P #.z g * $.` %.    ",
"      &.*.a =.P P Z / $.-.      ",
"        ;.>.>.,.8 # '.).        ",
"                                "};
