/* XPM */
static char * img_north_xpm[] = {
"40 40 58 1",
" 	c #000000",
".	c #FFFFFF",
"+	c #141B1B",
"@	c #868686",
"#	c #686A6A",
"$	c #FDFDFD",
"%	c #919292",
"&	c #C3C4C4",
"*	c #C9C9C9",
"=	c #595B5B",
"-	c #FAFAFA",
";	c #BFBFBF",
">	c #969797",
",	c #484A4A",
"'	c #F7F7F7",
")	c #CDCDCD",
"!	c #848585",
"~	c #B4B5B5",
"{	c #E2E2E2",
"]	c #373A3A",
"^	c #F3F3F3",
"/	c #939494",
"(	c #AAAAAA",
"_	c #E9E9E9",
":	c #1B2121",
"<	c #292D2D",
"[	c #EEEEEE",
"}	c #A1A2A2",
"|	c #9D9E9E",
"1	c #F0F0F0",
"2	c #2D3131",
"3	c #E7E7E7",
"4	c #ADAEAE",
"5	c #8F9090",
"6	c #F4F4F4",
"7	c #3F4141",
"8	c #E0E0E0",
"9	c #B8B9B9",
"0	c #808181",
"a	c #F8F8F8",
"b	c #4E5050",
"c	c #D7D7D7",
"d	c #C3C3C3",
"e	c #717373",
"f	c #FEFEFE",
"g	c #FCFCFC",
"h	c #5E5F5F",
"i	c #CFCFCF",
"j	c #CCCDCD",
"k	c #636464",
"l	c #6F7070",
"m	c #C5C6C6",
"n	c #D6D6D6",
"o	c #525454",
"p	c #7E7F7F",
"q	c #DEDEDE",
"r	c #8D8E8E",
"s	c #E6E6E6",
"                                        ",
".......................................+",
".......................................+",
".......................................+",
".......................................+",
".......................................+",
".......................................+",
".......................................+",
"...........@+++#$.........%++&.........+",
"...........@++++*.........%++&.........+",
"...........@++++=-........%++&.........+",
"...........@+++++;........%++&.........+",
"...........@++>++,'.......%++&.........+",
"...........@++)!++~.......%++&.........+",
"...........@++){++]^......%++&.........+",
"...........@++)./++(......%++&.........+",
"...........@++)._:+<[.....%++&.........+",
"...........@++)..}++|.....%++&.........+",
"...........@++)..12+:3....%++&.........+",
"...........@++)...4++5....%++&.........+",
"...........@++)...67++8...%++&.........+",
"...........@++)....9++0...%++&.........+",
"...........@++)....ab++c..%++&.........+",
"...........@++).....d++ef.%++&.........+",
"...........@++).....gh++i.%++&.........+",
"...........@++)......j++kg%++&.........+",
"...........@++)......fl++m%++&.........+",
"...........@++).......n++o!++&.........+",
"...........@++)........p+++++&.........+",
"...........@++)........q+++++&.........+",
"...........@++).........r++++&.........+",
"...........@++).........s++++&.........+",
".......................................+",
".......................................+",
".......................................+",
".......................................+",
".......................................+",
".......................................+",
".......................................+",
"++++++++++++++++++++++++++++++++++++++++"};
