/* XPM */
static char * img_south_xpm[] = {
"40 40 90 1",
" 	c #000000",
".	c #FFFFFF",
"+	c #141B1B",
"@	c #FDFDFD",
"#	c #D9D9D9",
"$	c #A5A6A6",
"%	c #747575",
"&	c #4C4E4E",
"*	c #292D2D",
"=	c #4A4C4C",
"-	c #6A6B6B",
";	c #7F8080",
">	c #9F9F9F",
",	c #C5C5C5",
"'	c #E2E2E2",
")	c #FAFAFA",
"!	c #E3E3E3",
"~	c #6E6F6F",
"{	c #DDDDDD",
"]	c #343737",
"^	c #F7F7F7",
"/	c #525454",
"(	c #202525",
"_	c #A1A2A2",
":	c #DBDCDC",
"<	c #F3F3F3",
"[	c #FCFCFC",
"}	c #F1F1F1",
"|	c #E7E7E7",
"1	c #D7D7D7",
"2	c #B5B6B6",
"3	c #898989",
"4	c #A8A9A9",
"5	c #969696",
"6	c #9D9E9E",
"7	c #7D7E7E",
"8	c #BEBFBF",
"9	c #848585",
"0	c #A7A8A8",
"a	c #AAAAAA",
"b	c #3D3F3F",
"c	c #E9E9E9",
"d	c #E1E1E1",
"e	c #3A3C3C",
"f	c #ABACAC",
"g	c #F8F8F8",
"h	c #1B2121",
"i	c #A4A4A4",
"j	c #C9CACA",
"k	c #EAEAEA",
"l	c #FEFEFE",
"m	c #BBBCBC",
"n	c #6C6E6E",
"o	c #C6C6C6",
"p	c #F2F2F2",
"q	c #BCBCBC",
"r	c #737474",
"s	c #EEEEEE",
"t	c #F6F6F6",
"u	c #BABABA",
"v	c #909191",
"w	c #464949",
"x	c #646565",
"y	c #F6F7F7",
"z	c #D8D8D8",
"A	c #717373",
"B	c #B4B5B5",
"C	c #F9F9F9",
"D	c #616262",
"E	c #C9C9C9",
"F	c #D6D6D6",
"G	c #B7B7B7",
"H	c #2D3131",
"I	c #8D8E8E",
"J	c #9A9A9A",
"K	c #888888",
"L	c #B0B1B1",
"M	c #D0D0D0",
"N	c #E4E4E4",
"O	c #EDEDED",
"P	c #F5F5F5",
"Q	c #A6A6A6",
"R	c #AFAFAF",
"S	c #C8C9C9",
"T	c #878787",
"U	c #585959",
"V	c #313434",
"W	c #515252",
"X	c #7A7B7B",
"Y	c #D2D2D2",
"                                        ",
".......................................+",
".......................................+",
".......................................+",
".......................................+",
".......................................+",
".......................................+",
".......................................+",
".............@#$%&*=-;>,').............+",
"............!~+++++++++++>.............+",
"...........{]++++++++++++>.............+",
"..........^/++(_:<[)}|1234.............+",
"..........,++(#........................+",
"..........5++6.........................+",
"..........7++8.........................+",
"..........9++0.........................+",
"..........a++bc........................+",
"..........d+++ef{g.....................+",
"...........0+++++h~ijk.................+",
"...........lm]++++++++no[..............+",
".............pqr++++++++rs.............+",
"................t#uvw++++xy............+",
"....................@zA+++B............+",
"......................CA++D............+",
".......................E+++)...........+",
".......................F+++t...........+",
".......................G++H............+",
"......................!e++I............+",
"..........JKLMNOP[[<:Q*+++#............+",
"..........I++++++++++++++R.............+",
"..........I++++++++++++&S..............+",
"..........C!S4TAUV]WXiYC...............+",
".......................................+",
".......................................+",
".......................................+",
".......................................+",
".......................................+",
".......................................+",
".......................................+",
"++++++++++++++++++++++++++++++++++++++++"};
