/* XPM */
static char * img_east_xpm[] = {
"40 40 8 1",
" 	c #000000",
".	c #FFFFFF",
"+	c #141B1B",
"@	c #868686",
"#	c #C3C4C4",
"$	c #BCBCBC",
"%	c #3F4141",
"&	c #8D8E8E",
"                                        ",
".......................................+",
".......................................+",
".......................................+",
".......................................+",
".......................................+",
".......................................+",
".......................................+",
"...........@++++++++++++++#............+",
"...........@++++++++++++++#............+",
"...........@++++++++++++++#............+",
"...........@++$........................+",
"...........@++$........................+",
"...........@++$........................+",
"...........@++$........................+",
"...........@++$........................+",
"...........@++$........................+",
"...........@++$........................+",
"...........@+++++++++++++%.............+",
"...........@+++++++++++++%.............+",
"...........@+++++++++++++%.............+",
"...........@++$........................+",
"...........@++$........................+",
"...........@++$........................+",
"...........@++$........................+",
"...........@++$........................+",
"...........@++$........................+",
"...........@++$........................+",
"...........@++$........................+",
"...........@++++++++++++++&............+",
"...........@++++++++++++++&............+",
"...........@++++++++++++++&............+",
".......................................+",
".......................................+",
".......................................+",
".......................................+",
".......................................+",
".......................................+",
".......................................+",
"++++++++++++++++++++++++++++++++++++++++"};
