/* XPM */
static char * img_west_xpm[] = {
"40 40 103 2",
"  	c #000000",
". 	c #FFFFFF",
"+ 	c #141B1B",
"@ 	c #818282",
"# 	c #BABABA",
"$ 	c #A2A2A2",
"% 	c #DFDFDF",
"& 	c #646565",
"* 	c #C9C9C9",
"= 	c #B7B7B7",
"- 	c #878787",
"; 	c #606161",
"> 	c #F1F1F1",
", 	c #ECECEC",
"' 	c #DDDDDD",
") 	c #313434",
"! 	c #FBFBFB",
"~ 	c #EFEFEF",
"{ 	c #CFD0D0",
"] 	c #565757",
"^ 	c #FAFAFA",
"/ 	c #292D2D",
"( 	c #E0E0E0",
"_ 	c #CECECE",
": 	c #747575",
"< 	c #A6A6A6",
"[ 	c #9E9F9F",
"} 	c #838383",
"| 	c #BABBBB",
"1 	c #A3A3A3",
"2 	c #D0D0D0",
"3 	c #656767",
"4 	c #CACACA",
"5 	c #888888",
"6 	c #616262",
"7 	c #868686",
"8 	c #F5F5F5",
"9 	c #EDEDED",
"0 	c #DEDEDE",
"a 	c #343737",
"b 	c #FCFCFC",
"c 	c #F0F0F0",
"d 	c #B8B9B9",
"e 	c #6E6F6F",
"f 	c #D0D1D1",
"g 	c #595B5B",
"h 	c #2D3131",
"i 	c #AAAAAA",
"j 	c #A7A7A7",
"k 	c #A0A0A0",
"l 	c #848484",
"m 	c #BBBCBC",
"n 	c #A4A4A4",
"o 	c #D2D2D2",
"p 	c #676868",
"q 	c #CBCBCB",
"r 	c #898989",
"s 	c #636464",
"t 	c #F2F2F2",
"u 	c #EEEEEE",
"v 	c #B6B6B6",
"w 	c #D1D1D1",
"x 	c #5B5C5C",
"y 	c #E1E1E1",
"z 	c #CFCFCF",
"A 	c #DBDCDC",
"B 	c #A5A6A6",
"C 	c #A7A8A8",
"D 	c #A1A2A2",
"E 	c #BCBCBC",
"F 	c #A4A5A5",
"G 	c #252929",
"H 	c #F8F8F8",
"I 	c #686A6A",
"J 	c #CCCDCD",
"K 	c #B9B9B9",
"L 	c #8B8B8B",
"M 	c #7D7E7E",
"N 	c #373A3A",
"O 	c #B3B3B3",
"P 	c #5D5E5E",
"Q 	c #5E5F5F",
"R 	c #D9D9D9",
"S 	c #A8A9A9",
"T 	c #BDBDBD",
"U 	c #1B2121",
"V 	c #F7F7F7",
"W 	c #6B6C6C",
"X 	c #8B8C8C",
"Y 	c #797A7A",
"Z 	c #F3F3F3",
"` 	c #B0B1B1",
" .	c #545656",
"..	c #D7D7D7",
"+.	c #9B9B9B",
"@.	c #F6F6F6",
"#.	c #C7C7C7",
"$.	c #E9E9E9",
"%.	c #ADAEAE",
"&.	c #FEFEFE",
"*.	c #4A4C4C",
"=.	c #D4D5D5",
"-.	c #969696",
"                                                                                ",
". . . . . . . . . . . . . . . . . . . . . . . . . . . . . . . . . . . . . . . + ",
". . . . . . . . . . . . . . . . . . . . . . . . . . . . . . . . . . . . . . . + ",
". . . . . . . . . . . . . . . . . . . . . . . . . . . . . . . . . . . . . . . + ",
". . . . . . . . . . . . . . . . . . . . . . . . . . . . . . . . . . . . . . . + ",
". . . . . . . . . . . . . . . . . . . . . . . . . . . . . . . . . . . . . . . + ",
". . . . . . . . . . . . . . . . . . . . . . . . . . . . . . . . . . . . . . . + ",
". . . . . . . . . . . . . . . . . . . . . . . . . . . . . . . . . . . . . . . + ",
". . . . . @ + + # . . . . . . . . . $ + + + % . . . . . . . . . & + + * . . . + ",
". . . . . = + + - . . . . . . . . . ; + + + # . . . . . . . . > + + + , . . . + ",
". . . . . ' + + ) ! . . . . . . . ~ + + + + - . . . . . . . . { + + ] . . . . + ",
". . . . . ^ / + + ( . . . . . . . _ + + : + ) ! . . . . . . . < + + [ . . . . + ",
". . . . . . } + + | . . . . . . . 1 + ) 2 + + % . . . . . . . 3 + + 4 . . . . + ",
". . . . . . = + + 5 . . . . . . . 6 + 7 8 + + # . . . . . . > + + + 9 . . . . + ",
". . . . . . 0 + + a b . . . . . c + + d . e + - . . . . . . f + + g . . . . . + ",
". . . . . . ^ h + + ( . . . . . _ + + 0 . i + ) ! . . . . . j + + k . . . . . + ",
". . . . . . . l + + m . . . . . n + / ^ . o + + % . . . . . p + + q . . . . . + ",
". . . . . . . d + + r . . . . . s + @ . . t + + # . . . . t + + + u . . . . . + ",
". . . . . . . 0 + + a b . . . c + + v . . . 3 + 5 . . . . w + + x . . . . . . + ",
". . . . . . . ! h + + y . . . z + + A . . . B + ) ! . . . C + + D . . . . . . + ",
". . . . . . . . 7 + + E . . . F + G H . . . _ + + ( . . . I + + J . . . . . . + ",
". . . . . . . . K + + L . . . & + M . . . . ~ + + | . . t + + + ~ . . . . . . + ",
". . . . . . . . % + + N b . > + + O . . . . . P + 5 . . o + + Q . . . . . . . + ",
". . . . . . . . ! ) + + y . { + + R . . . . . k + ) ! . S + + 1 . . . . . . . + ",
". . . . . . . . . - + + T . < + U V . . . . . q + + ( . W + + _ . . . . . . . + ",
". . . . . . . . . # + + X . 3 + Y . . . . . . , + + | Z + + + c . . . . . . . + ",
". . . . . . . . . ( + + N u + + ` . . . . . . .  .+ 5 o + + 6 . . . . . . . . + ",
". . . . . . . . . b a + + C + + ... . . . . . . +.+ a $ + + F . . . . . . . . + ",
". . . . . . . . . . 5 + + / + U @.. . . . . . . #.+ + / + + z . . . . . . . . + ",
". . . . . . . . . . m + + + + : . . . . . . . . $.+ + + + + > . . . . . . . . + ",
". . . . . . . . . . ( + + + + %.. . . . . . . . &.*.+ + + & . . . . . . . . . + ",
". . . . . . . . . . b a + + + =.. . . . . . . . . -.+ + + B . . . . . . . . . + ",
". . . . . . . . . . . . . . . . . . . . . . . . . . . . . . . . . . . . . . . + ",
". . . . . . . . . . . . . . . . . . . . . . . . . . . . . . . . . . . . . . . + ",
". . . . . . . . . . . . . . . . . . . . . . . . . . . . . . . . . . . . . . . + ",
". . . . . . . . . . . . . . . . . . . . . . . . . . . . . . . . . . . . . . . + ",
". . . . . . . . . . . . . . . . . . . . . . . . . . . . . . . . . . . . . . . + ",
". . . . . . . . . . . . . . . . . . . . . . . . . . . . . . . . . . . . . . . + ",
". . . . . . . . . . . . . . . . . . . . . . . . . . . . . . . . . . . . . . . + ",
"+ + + + + + + + + + + + + + + + + + + + + + + + + + + + + + + + + + + + + + + + "};
