/* XPM */
static char * kakavert_xpm[] = {
"40 20 7 1",
" 	c None",
".	c #FFFF08",
"+	c #84FF08",
"@	c #31FF31",
"#	c #08F7FF",
"$	c #FF94B5",
"%	c #000000",
"          @                             ",
"          @     .     .       @         ",
"         @@   ..... .....     @         ",
" +      @@@@   ...   ...     @@      +  ",
"+ +   @@@@@@@@ . .   . .    @@@@    + + ",
" +   @@@@@@@@@@           @@@@@@@@   +  ",
"    @@@@@@@@@@@@         @@@@@@@@@@     ",
"    @@@@@@@@@@@@        @@@@@@@@@@@@    ",
"     @@@@@@@@@@   # #   @@@@@@@@@@@@@   ",
"   @@@@%@@@%@@@@@        @@@@@@@@@@@@   ",
"  @@@@%@@@@@%@@@@@    @@@@@%@@@%@@@@@@  ",
"  @@@%@@@@@@@%@@@@   @@@@@%@@@@@%@@@@@@ ",
"  @@@@@@@@@@@@@@@@   @@@@%@@@@@@@%@@@@@ ",
"   @$$$@%@%@$$$@@    @@@@@@@@@@@@@@@@@@ ",
"    $$$@%@%@$$$@      @@$$$@%@%@$$$@@@  ",
"  @@@@@@@%@@@@@@@@   @@@$$$@%@%@$$$@@@@ ",
" @@@@@@@@@@@@@@@@@@ @@@@@@@@@%@@@@@@@@@@",
" @@@@@@@@@@@@@@@@@@ @@@@@@@@@@@@@@@@@@@@",
" @@@@@@@@@@@@@@@@@@ @@@@@@@@@@@@@@@@@@@@",
"  @@@@@@@@@@@@@@@@   @@@@@@@@@@@@@@@@@@ "};
