/* XPM */
static char * nounours_xpm[] = {
"160 20 11 1",
" 	c None",
".	c #000000",
"+	c #310808",
"@	c #313431",
"#	c #525152",
"$	c #FF3063",
"%	c #CE6500",
"&	c #FFCF31",
"*	c #FFFFFF",
"=	c #F7B600",
"-	c #FFFF00",
"                                                                                                                                                                ",
"     ..     ..              ++                                      ++               ..     ..               ++                                      ++         ",
"    .%%+   +%%.            +%%+                      =             +%%+             .%%+   +%%.             +%%+              =                     +%%+        ",
"   .%&+++++++&%.     .. ++++&%+                      =       .. ++++&%+            .%&+++++++&%.            +%&++++ ..        =                     +%&++++ ..  ",
"   .%+%%%%%%%+%.    .%%+%%%%%%%+    =    ..+++++   =====    .%%+%%%%%%%+           .%+%%%%%%%+%.      -    +%%%%%%%+%%.     =====   +++++..        +%%%%%%%+%%. ",
"    +%%%%%%%%%+     +%&%%%%%++%%+   =   .%%+%%$%+    =      +%&%%%%%++%%+   -       +%%%%%%%%%+       -   +%%++%%%%%&%+       =    +%$%%+%%.  -   +%%++%%%%%&%+ ",
"   +%..%%%%%..%+    +%%%%%%*++%$+ ===== %&+%..$%%+   =      +%%%%%%*++%$+  ---     +%..%%%%%..%+    ----- +$%++*%%%%%%+       =   +%%$..%+&% ---  +$%++*%%%%%%+ ",
"   +%..**.**..%+     +%++*+***$%+   =   %+%%..%%%+           +%++*+***$%+   -      +%..**.**..%+      -   +%$***+*++%+            +%%%..%%+%  -   +%$***+*++%+  ",
"   +$$%*...*%$$+     +%++*+++*%%+   =   ++%%%**%%+           +%++*+++*%%+          +$$%*...*%$$+      -   +%%*+++*++%+            +%%**%%%++      +%%*+++*++%+  ",
"   +%%%%***%%%%+     +%$*++**%%%+        +%%%*.*%+       =   +%$*++**%%%+          +%%%%***%%%%+          +%%%**++*$%+    -       +%*.*%%%+       +%%%**++*$%+  ",
"    +%%%%%%%%%+      +$%%***%%++  -      +%%%..*%+      ===  +$%%***%%++            +%%%%%%%%%+         =  ++%%***%%$+   ---     #+%*..%%%+        ++%%***%%$+  ",
"     +++++++++        +%%%%%++   ---     +%%%*.*%+       =    +%%%%%++     =         +++++++++         === @#++%%%%%+     -      #+%*.*%%%+    =   @#++%%%%%+   ",
"       @  #            +++++      -     ++%%%**%%+             +++++       =           @  #             =  #   +++++          =  @+%%**%%%++   =   #   +++++    ",
"        ##@                 #           %+%%..%%%+   -              #    =====          ##@                 @#               ===@#+%%%..%%+% =====  @#          ",
"       @  #               ##@           %&+%..$%%+@ ---           ##@      =           @  #                 ##                = # +%%$..%+&%   =    ##          ",
"        ##@               @  #          .%%+%%$%++@  -            @  #     =            ##@                @  #                 @#++%$%%+%%.   =   @  #         ",
"       @  #                ##@           ..++++++ #                ##@                 @  #                 ##@                ## #++++++..         ##@         ",
"        ##@                @  #                 ##@                @  #                 ##@                @  #                 ##@                @  #         ",
"          @                 ##@                @  #                 ##@                   @                 ##@                @  #                 ##@         ",
"       ++++++              ++++++              ++++++              ++++++              ++++++              ++++++              ++++++              ++++++       "};
