/* XPM */
static char * nounoursvert_xpm[] = {
"160 20 11 1",
" 	c None",
".	c #000000",
"+	c #001400",
"@	c #02FF00",
"#	c #FFFFFF",
"$	c #002E00",
"%	c #310808",
"&	c #FFFF00",
"*	c #FF3063",
"=	c #FFCF31",
"-	c #D2D1D2",
"                                                                                                                                                                ",
"     ..     ..              ++                                      ++               ++     ++               ++                                      ++         ",
"    .@@+   +@@+            +@@+                      #             +@@+             +@@$   $@@+             +@@+              #                     +@@+        ",
"   .@#+++++++#@+     .. ++++#@+                      #       ++ ++++#@+            .@#$$$$$$$#@+            +@#++++ ..        #                     +@#++++ ..  ",
"   .@%@@@@@@@+@+    .@@$@@@@@@@+    #    ..+++++   #####    .@@%@@@@@@@+           .@$@@@@@@@$@+      &    +@@@@@@@%@@.     #####   +++++..        +@@@@@@@$@@. ",
"    +@@@@@@@@@+     +@#@@@@@++@@+   #   .@@+@@*@+    #      +@#@@@@@++@@+   &       $@@@@@@@@@$       &   +@@++@@@@@#@+       #    +@*@@+@@.  &   +@@++@@@@@=@+ ",
"   +@..@@@@@..@+    +@@@@@@#++@*+ ##### @#%@..*@@+   #      +@@@@@@#++@*+  &&&     +@..@@@@@..@+    &&&&& +*@++#@@@@@@+       #   +@@*..@$#@ &&&  +*@++#@@@@@@+ ",
"   +@..##.##..@+     +@++#+###*@+   #   @+@@..@@@+           +@++#+###*@+   &      +@..##.##..@+      &   +@*###+#++@+            +@@@..@@+@  &   +@*###+#++@+  ",
"   +**@#...#@**+     +@++#+++#@@+   #   ++@@@##@@+           +@++#+++#@@+          +**@#...#@**+      &   +@@#+++#++@+            +@@##@@@++      +@@#+++#++@+  ",
"   +@@@@###@@@@+     +@*#++##@@@+        +@@@#.#@+       #   +@*#++##@@@+          +@@@@###@@@@+          +@@@##++#*@+    &       +@#.#@@@+       +@@@##++#*@+  ",
"    +@@@@@@@@@+      +*@@###@@++  &      +@@@..#@+      ###  +*@@###@@++            $@@@@@@@@@+         #  ++@@###@@*+   &&&     -+@#..@@@+        ++@@###@@*+  ",
"     +++++++++        +@@@@@++   &&&     +@@@#.#@+       #    +@@@@@++     #         +++++++++         ### #-++@@@@@$     &      -+@#.#@@@+    #   #-++@@@@@+   ",
"       #  -            +++++      &     ++@@@##@@+             +++++       #           #  -             #  -   +++++          #  #+@@##@@@++   #   -   +++++    ",
"        --#                 -           @+@@..@@@+   &              -    #####          --#                 #-               ####-+@@@..@@+@ #####  #-          ",
"       #  -               --#           @#%@..*@@+# &&&           --#      #           #  -                 --                # - +@@*..@+#@   #    --          ",
"        --#               #  -          .@@+@@*@++#  &            #  -     #            --#                #  -                 #-++@*@@+@@.   #   #  -         ",
"       #  -                --#           ++++++++ -                --#                 #  -                 --#                -- -++++++..         --#         ",
"        --#                #  -                 --#                #  -                 --#                #  -                 --#                #  -         ",
"          #                 --#                #  -                 --#                   #                 --#                #  -                 --#         ",
"       ++++++              ++++++              ++++++              ++++++              ++++++              ++++++              ++++++              ++++++       "};
